<svg id="Capa_1" enable-background="new 0 0 512 512" height="512" viewBox="0 0 512 512" width="512" xmlns="http://www.w3.org/2000/svg"><g><g><path d="m272.5 457.5h-33c-4.142 0-7.5 3.357-7.5 7.5s3.358 7.5 7.5 7.5h33c4.142 0 7.5-3.357 7.5-7.5s-3.358-7.5-7.5-7.5z"/><circle cx="161.75" cy="73.755" r="7.5"/><circle cx="196" cy="73.755" r="7.5"/><circle cx="230.25" cy="73.755" r="7.5"/><path d="m402.037 0h-292.074c-21.152 0-38.36 17.209-38.36 38.361v22.755c0 4.143 3.358 7.5 7.5 7.5s7.5-3.357 7.5-7.5v-22.755c0-12.882 10.479-23.361 23.36-23.361h292.073c12.881 0 23.361 10.479 23.361 23.361v94.031l-26.01-35.828v-33.718c0-12.04-9.795-21.836-21.835-21.836h-243.104c-12.04 0-21.835 9.796-21.835 21.836v33.719l-26.01 35.828v-36.214c0-4.143-3.358-7.5-7.5-7.5s-7.5 3.357-7.5 7.5v377.46c0 21.152 17.208 38.361 38.361 38.361h292.073c21.152 0 38.361-17.209 38.361-38.361 0-35.671 0-424.124 0-435.277-.001-21.153-17.209-38.362-38.361-38.362zm16.148 147.99h-51.132l-18.073-41.49h39.084zm-119.306 15h55.759v6.031c0 15.373-12.507 27.88-27.879 27.88-15.373 0-27.88-12.507-27.88-27.88zm-1.01-15-6.024-41.49h40.773l18.073 41.49zm-170.256-85.144c0-3.77 3.066-6.836 6.835-6.836h243.104c3.769 0 6.835 3.066 6.835 6.836v28.654c-63.446 0-196.295 0-256.774 0zm156.266 100.144v6.031c0 15.373-12.507 27.88-27.879 27.88s-27.879-12.507-27.879-27.88v-6.031zm-54.591-15 6.025-41.49h41.375l6.025 41.49zm-67.979 0 18.073-41.49h40.773l-6.024 41.49zm51.812 15v6.031c0 15.373-12.507 27.88-27.88 27.88s-27.879-12.507-27.879-27.88v-6.031zm-89.185-56.49h39.084l-18.073 41.49h-51.132zm-37.333 56.49h55.759v6.031c0 15.373-12.507 27.88-27.879 27.88s-27.879-12.507-27.879-27.88v-6.031zm338.794 310.649c0 12.882-10.479 23.361-23.361 23.361h-292.073c-12.881 0-23.361-10.479-23.361-23.361v-272.078c7.061 6.058 16.102 9.866 26.01 10.293v203.345c0 12.04 9.795 21.835 21.835 21.835h243.104c12.04 0 21.835-9.795 21.835-21.835v-52.402c0-4.143-3.358-7.5-7.5-7.5s-7.5 3.357-7.5 7.5v52.402c0 3.769-3.066 6.835-6.835 6.835h-243.103c-3.769 0-6.835-3.066-6.835-6.835v-205.362c9.128-2.944 16.929-8.867 22.249-16.623 7.734 11.274 20.705 18.688 35.38 18.688 14.674 0 27.646-7.413 35.379-18.688 7.734 11.274 20.705 18.688 35.38 18.688s27.646-7.413 35.38-18.688c7.734 11.274 20.705 18.688 35.38 18.688 14.674 0 27.646-7.413 35.379-18.688 5.32 7.756 13.12 13.679 22.249 16.623v117.996c0 4.143 3.358 7.5 7.5 7.5s7.5-3.357 7.5-7.5v-115.979c9.908-.427 18.949-4.235 26.01-10.293v272.078zm0-304.618c0 15.373-12.507 27.88-27.879 27.88s-27.879-12.507-27.879-27.88v-6.031h55.759v6.031z"/><path d="m215.817 359.392c.598 3.682 3.781 6.3 7.394 6.3.399 0 .804-.032 1.21-.098 4.088-.663 6.865-4.516 6.202-8.604l-4.193-25.849c-.664-4.088-4.516-6.859-8.604-6.202-4.088.663-6.865 4.516-6.202 8.604z"/><path d="m287.579 365.594c.407.065.811.098 1.21.098 3.613 0 6.797-2.618 7.394-6.3l4.193-25.849c.663-4.089-2.114-7.941-6.202-8.604-4.087-.654-7.941 2.113-8.604 6.202l-4.193 25.849c-.664 4.088 2.113 7.941 6.202 8.604z"/><path d="m256 365.69c4.142 0 7.5-3.357 7.5-7.5v-25.849c0-4.143-3.358-7.5-7.5-7.5s-7.5 3.357-7.5 7.5v25.849c0 4.143 3.358 7.5 7.5 7.5z"/><path d="m330.357 269.927h-21.904l-29.5-31.549c-2.829-3.027-7.575-3.186-10.601-.356s-3.185 7.575-.355 10.601l19.921 21.305h-63.837l19.921-21.305c2.829-3.025 2.67-7.771-.355-10.601-3.025-2.827-7.771-2.671-10.601.356l-29.5 31.549h-21.904c-11.748 0-21.306 9.558-21.306 21.306 0 9.281 5.974 17.173 14.271 20.088l11.957 65.475c1.932 10.578 11.139 18.257 21.893 18.257h95.085c10.754 0 19.961-7.679 21.893-18.257l11.957-65.475c8.296-2.915 14.271-10.807 14.271-20.088 0-11.749-9.558-21.306-21.306-21.306zm-19.677 104.174c-.63 3.449-3.631 5.952-7.137 5.952h-95.085c-3.506 0-6.507-2.503-7.137-5.952l-11.242-61.562h131.844zm20.194-76.588c-.182.001-.361.012-.54.026h-148.678c-.174-.013-.348-.025-.524-.026-3.238-.261-5.795-2.976-5.795-6.281 0-3.477 2.829-6.306 6.306-6.306h148.715c3.477 0 6.306 2.829 6.306 6.306-.001 3.303-2.554 6.017-5.79 6.281z"/></g></g></svg>