<svg id="Capa_1" enable-background="new 0 0 512 512" height="512" viewBox="0 0 512 512" width="512" xmlns="http://www.w3.org/2000/svg"><g><path d="m376.321 0h-240.642c-26.624 0-48.284 21.579-48.284 48.103v415.704c0 26.574 21.619 48.193 48.193 48.193h240.824c26.574 0 48.193-21.619 48.193-48.193v-415.704c0-26.524-21.66-48.103-48.284-48.103zm-61.768 412.168h-117.106v-182.402h117.105v182.402zm10-202.402h-137.106c-5.522 0-10 4.478-10 10v192.402h-70.053v-264.981c6.461 3.941 13.899 6.051 21.669 6.051 12.701 0 24.086-5.707 31.75-14.684 7.664 8.976 19.049 14.684 31.75 14.684s24.087-5.708 31.751-14.684c7.664 8.976 19.05 14.684 31.75 14.684s24.087-5.708 31.751-14.684c7.664 8.976 19.05 14.684 31.75 14.684s24.087-5.708 31.751-14.684c7.664 8.976 19.05 14.684 31.75 14.684 7.726 0 15.116-2.078 21.539-5.968v264.899h-70.053v-192.403c.001-5.523-4.477-10-9.999-10zm-217.158-134.986c-.016-1.634.61-3.173 1.762-4.335 1.172-1.183 2.74-1.834 4.416-1.834h37.241v42.876c0 11.993-9.757 21.75-21.75 21.75h-.001c-5.822 0-11.286-2.269-15.386-6.387-4.078-4.098-6.31-9.537-6.282-15.363zm63.418-6.169h43.501v42.876c0 11.993-9.758 21.75-21.751 21.75s-21.75-9.757-21.75-21.75zm63.501 0h43.501v42.876c0 11.993-9.758 21.75-21.751 21.75s-21.75-9.757-21.75-21.75zm63.501 0h43.501v42.876c0 11.993-9.758 21.75-21.751 21.75s-21.75-9.757-21.75-21.75zm63.501 0h37.24c1.683 0 3.244.65 4.398 1.832 1.077 1.103 1.657 2.548 1.65 4.081v37.11c.061 5.723-2.12 11.118-6.146 15.192-4.085 4.135-9.552 6.411-15.394 6.411-11.993 0-21.75-9.757-21.75-21.75v-42.876zm-225.637-48.611h240.643c15.596 0 28.284 12.606 28.284 28.103v1.21c-1.957-.458-3.982-.701-6.049-.701h-284.985c-2.11 0-4.179.252-6.178.731v-1.24c.001-15.497 12.689-28.103 28.285-28.103zm268.926 443.807c0 15.546-12.647 28.193-28.193 28.193h-240.824c-15.546 0-28.193-12.647-28.193-28.193v-31.639h297.211v31.639z"/><path d="m262.667 452.084h-13.334c-5.522 0-10 4.478-10 10s4.478 10 10 10h13.334c5.522 0 10-4.478 10-10s-4.478-10-10-10z"/></g></svg>