<svg style="position: absolute; width: 0; height: 0;" width="0" height="0" version="1.1"
     xmlns="http://www.w3.org/2000/svg" xmlns:xlink="http://www.w3.org/1999/xlink">

    <defs>

        <symbol id="facebook" viewBox="0 0 24 24">
            <path class="cls-1" d="M12,0A12,12,0,1,0,24,12,12,12,0,0,0,12,0Zm3,8H13.65c-.54,0-.65.22-.65.78V10h2l-.21,2H13v7H10V12H8V10h2V7.69C10,5.92,10.93,5,13,5h2Z"/>
        </symbol>

        <symbol id="user" viewBox="0 0 480 480">
            <path d="M240,0C107.664,0,0,107.664,0,240c0,57.96,20.656,111.184,54.992,152.704c0.088,0.12,0.096,0.272,0.192,0.384
					c24.792,29.896,55.928,52.816,90.624,67.624c0.4,0.168,0.792,0.352,1.192,0.52c2.808,1.184,5.648,2.28,8.496,3.352
					c1.12,0.424,2.24,0.856,3.376,1.264c2.456,0.88,4.928,1.712,7.416,2.512c1.592,0.512,3.184,1.016,4.792,1.496
					c2.2,0.656,4.408,1.288,6.632,1.888c1.952,0.528,3.92,1.016,5.888,1.488c1.992,0.48,3.992,0.96,6,1.384
					c2.24,0.48,4.504,0.904,6.776,1.32c1.824,0.336,3.64,0.688,5.48,0.984c2.52,0.408,5.056,0.728,7.6,1.056
					c1.64,0.208,3.272,0.448,4.92,0.624c2.88,0.304,5.784,0.52,8.696,0.72c1.352,0.096,2.696,0.24,4.056,0.312
					c4.248,0.24,8.544,0.368,12.872,0.368s8.624-0.128,12.888-0.352c1.36-0.072,2.704-0.216,4.056-0.312
					c2.912-0.208,5.816-0.416,8.696-0.72c1.648-0.176,3.28-0.416,4.92-0.624c2.544-0.328,5.08-0.648,7.6-1.056
					c1.832-0.296,3.656-0.648,5.48-0.984c2.264-0.416,4.528-0.84,6.776-1.32c2.008-0.432,4-0.904,6-1.384
					c1.968-0.48,3.936-0.968,5.888-1.488c2.224-0.592,4.432-1.232,6.632-1.888c1.608-0.48,3.2-0.984,4.792-1.496
					c2.488-0.8,4.96-1.632,7.416-2.512c1.128-0.408,2.248-0.84,3.376-1.264c2.856-1.072,5.688-2.176,8.496-3.352
					c0.4-0.168,0.792-0.352,1.192-0.52c34.688-14.808,65.832-37.728,90.624-67.624c0.096-0.112,0.104-0.272,0.192-0.384
					C459.344,351.184,480,297.96,480,240C480,107.664,372.336,0,240,0z M337.256,441.76c-0.12,0.056-0.232,0.12-0.352,0.176
					c-2.856,1.376-5.76,2.672-8.688,3.936c-0.664,0.28-1.32,0.568-1.984,0.848c-2.56,1.072-5.152,2.088-7.76,3.064
					c-1.088,0.408-2.176,0.808-3.272,1.192c-2.312,0.824-4.632,1.616-6.976,2.368c-1.456,0.464-2.92,0.904-4.384,1.336
					c-2.08,0.624-4.168,1.224-6.28,1.784c-1.776,0.472-3.568,0.904-5.36,1.328c-1.88,0.448-3.752,0.904-5.648,1.304
					c-2.072,0.44-4.16,0.816-6.24,1.192c-1.688,0.312-3.368,0.64-5.072,0.912c-2.344,0.368-4.712,0.664-7.072,0.96
					c-1.496,0.192-2.984,0.416-4.496,0.576c-2.696,0.288-5.416,0.472-8.128,0.664c-1.208,0.08-2.408,0.216-3.632,0.28
					c-3.96,0.208-7.928,0.32-11.912,0.32s-7.952-0.112-11.904-0.32c-1.216-0.064-2.416-0.192-3.632-0.28
					c-2.72-0.184-5.432-0.376-8.128-0.664c-1.512-0.16-3-0.384-4.496-0.576c-2.36-0.296-4.728-0.592-7.072-0.96
					c-1.704-0.272-3.384-0.6-5.072-0.912c-2.088-0.376-4.176-0.76-6.24-1.192c-1.896-0.4-3.776-0.856-5.648-1.304
					c-1.792-0.432-3.584-0.856-5.36-1.328c-2.104-0.56-4.2-1.168-6.28-1.784c-1.464-0.432-2.928-0.872-4.384-1.336
					c-2.344-0.752-4.672-1.544-6.976-2.368c-1.096-0.392-2.184-0.792-3.272-1.192c-2.608-0.976-5.2-1.992-7.76-3.064
					c-0.664-0.272-1.312-0.56-1.976-0.84c-2.928-1.256-5.832-2.56-8.696-3.936c-0.12-0.056-0.232-0.112-0.352-0.176
					c-27.912-13.504-52.568-32.672-72.576-55.952c15.464-56.944,59.24-102.848,115.56-121.112c1.112,0.68,2.272,1.288,3.416,1.928
					c0.672,0.376,1.336,0.776,2.016,1.136c2.384,1.264,4.8,2.448,7.272,3.512c1.896,0.832,3.856,1.536,5.808,2.256
					c0.384,0.136,0.768,0.288,1.152,0.424c10.848,3.84,22.456,6.04,34.6,6.04s23.752-2.2,34.592-6.04
					c0.384-0.136,0.768-0.288,1.152-0.424c1.952-0.72,3.912-1.424,5.808-2.256c2.472-1.064,4.888-2.248,7.272-3.512
					c0.68-0.368,1.344-0.76,2.016-1.136c1.144-0.64,2.312-1.248,3.432-1.936c56.32,18.272,100.088,64.176,115.56,121.112
					C389.824,409.08,365.168,428.248,337.256,441.76z M152,176c0-48.52,39.48-88,88-88s88,39.48,88,88
					c0,30.864-16.008,58.024-40.128,73.736c-3.152,2.048-6.432,3.88-9.8,5.48c-0.4,0.192-0.792,0.392-1.192,0.576
					c-23.168,10.536-50.592,10.536-73.76,0c-0.4-0.184-0.8-0.384-1.192-0.576c-3.376-1.6-6.648-3.432-9.8-5.48
					C168.008,234.024,152,206.864,152,176z M421.832,370.584c-18.136-53.552-59.512-96.832-112.376-117.392
					C330.6,234.144,344,206.64,344,176c0-57.344-46.656-104-104-104s-104,46.656-104,104c0,30.64,13.4,58.144,34.552,77.192
					c-52.864,20.568-94.24,63.84-112.376,117.392C31.672,333.792,16,288.704,16,240C16,116.488,116.488,16,240,16s224,100.488,224,224
					C464,288.704,448.328,333.792,421.832,370.584z"/>
        </symbol>

        <symbol id="user03" viewBox="0 0 55 55">
            <path d="M55,27.5C55,12.337,42.663,0,27.5,0S0,12.337,0,27.5c0,8.009,3.444,15.228,8.926,20.258l-0.026,0.023l0.892,0.752
				c0.058,0.049,0.121,0.089,0.179,0.137c0.474,0.393,0.965,0.766,1.465,1.127c0.162,0.117,0.324,0.234,0.489,0.348
				c0.534,0.368,1.082,0.717,1.642,1.048c0.122,0.072,0.245,0.142,0.368,0.212c0.613,0.349,1.239,0.678,1.88,0.98
				c0.047,0.022,0.095,0.042,0.142,0.064c2.089,0.971,4.319,1.684,6.651,2.105c0.061,0.011,0.122,0.022,0.184,0.033
				c0.724,0.125,1.456,0.225,2.197,0.292c0.09,0.008,0.18,0.013,0.271,0.021C25.998,54.961,26.744,55,27.5,55
				c0.749,0,1.488-0.039,2.222-0.098c0.093-0.008,0.186-0.013,0.279-0.021c0.735-0.067,1.461-0.164,2.178-0.287
				c0.062-0.011,0.125-0.022,0.187-0.034c2.297-0.412,4.495-1.109,6.557-2.055c0.076-0.035,0.153-0.068,0.229-0.104
				c0.617-0.29,1.22-0.603,1.811-0.936c0.147-0.083,0.293-0.167,0.439-0.253c0.538-0.317,1.067-0.648,1.581-1
				c0.185-0.126,0.366-0.259,0.549-0.391c0.439-0.316,0.87-0.642,1.289-0.983c0.093-0.075,0.193-0.14,0.284-0.217l0.915-0.764
				l-0.027-0.023C51.523,42.802,55,35.55,55,27.5z M2,27.5C2,13.439,13.439,2,27.5,2S53,13.439,53,27.5
				c0,7.577-3.325,14.389-8.589,19.063c-0.294-0.203-0.59-0.385-0.893-0.537l-8.467-4.233c-0.76-0.38-1.232-1.144-1.232-1.993v-2.957
				c0.196-0.242,0.403-0.516,0.617-0.817c1.096-1.548,1.975-3.27,2.616-5.123c1.267-0.602,2.085-1.864,2.085-3.289v-3.545
				c0-0.867-0.318-1.708-0.887-2.369v-4.667c0.052-0.52,0.236-3.448-1.883-5.864C34.524,9.065,31.541,8,27.5,8
				s-7.024,1.065-8.867,3.168c-2.119,2.416-1.935,5.346-1.883,5.864v4.667c-0.568,0.661-0.887,1.502-0.887,2.369v3.545
				c0,1.101,0.494,2.128,1.34,2.821c0.81,3.173,2.477,5.575,3.093,6.389v2.894c0,0.816-0.445,1.566-1.162,1.958l-7.907,4.313
				c-0.252,0.137-0.502,0.297-0.752,0.476C5.276,41.792,2,35.022,2,27.5z"/>
        </symbol>

        <symbol id="group-ico" viewBox="0 0 505.4 505.4">
            <path d="M437.1,233.45c14.8-10.4,24.6-27.7,24.6-47.2c0-31.9-25.8-57.7-57.7-57.7c-31.9,0-57.7,25.8-57.7,57.7
			c0,19.5,9.7,36.8,24.6,47.2c-12.7,4.4-24.3,11.2-34.1,20c-13.5-11.5-29.4-20.3-46.8-25.5c21.1-12.8,35.3-36.1,35.3-62.6
			c0-40.4-32.7-73.1-73.1-73.1c-40.4,0-73.1,32.8-73.1,73.1c0,26.5,14.1,49.8,35.3,62.6c-17.2,5.2-32.9,13.9-46.3,25.2
			c-9.8-8.6-21.2-15.3-33.7-19.6c14.8-10.4,24.6-27.7,24.6-47.2c0-31.9-25.8-57.7-57.7-57.7s-57.7,25.8-57.7,57.7
			c0,19.5,9.7,36.8,24.6,47.2C28.5,247.25,0,284.95,0,329.25v6.6c0,0.2,0.2,0.4,0.4,0.4h122.3c-0.7,5.5-1.1,11.2-1.1,16.9v6.8
			c0,29.4,23.8,53.2,53.2,53.2h155c29.4,0,53.2-23.8,53.2-53.2v-6.8c0-5.7-0.4-11.4-1.1-16.9H505c0.2,0,0.4-0.2,0.4-0.4v-6.6
			C505.2,284.85,476.8,247.15,437.1,233.45z M362.3,186.15c0-23,18.7-41.7,41.7-41.7s41.7,18.7,41.7,41.7
			c0,22.7-18.3,41.2-40.9,41.7c-0.3,0-0.5,0-0.8,0s-0.5,0-0.8,0C380.5,227.45,362.3,208.95,362.3,186.15z M194.9,165.35
			c0-31.5,25.6-57.1,57.1-57.1s57.1,25.6,57.1,57.1c0,30.4-23.9,55.3-53.8,57c-1.1,0-2.2,0-3.3,0c-1.1,0-2.2,0-3.3,0
			C218.8,220.65,194.9,195.75,194.9,165.35z M59.3,186.15c0-23,18.7-41.7,41.7-41.7s41.7,18.7,41.7,41.7c0,22.7-18.3,41.2-40.9,41.7
			c-0.3,0-0.5,0-0.8,0s-0.5,0-0.8,0C77.6,227.45,59.3,208.95,59.3,186.15z M125.5,320.15H16.2c4.5-42.6,40.5-76,84.2-76.3
			c0.2,0,0.4,0,0.6,0s0.4,0,0.6,0c20.8,0.1,39.8,7.8,54.5,20.3C141.7,279.75,131,298.95,125.5,320.15z M366.8,359.95
			c0,20.5-16.7,37.2-37.2,37.2h-155c-20.5,0-37.2-16.7-37.2-37.2v-6.8c0-62.1,49.6-112.9,111.3-114.7c1.1,0.1,2.3,0.1,3.4,0.1
			s2.3,0,3.4-0.1c61.7,1.8,111.3,52.6,111.3,114.7V359.95z M378.7,320.15c-5.5-21.1-16-40-30.3-55.6c14.8-12.8,34-20.5,55-20.7
			c0.2,0,0.4,0,0.6,0s0.4,0,0.6,0c43.7,0.3,79.7,33.7,84.2,76.3H378.7z"/>
        </symbol>

        <symbol id="chat-ico" viewBox="0 0 373.232 373.232">
            <g>
                <path d="M187.466,0c-0.1,0.1-0.3,0.1-0.6,0.1c-101.2,0-183.5,82.3-183.5,183.5c0,41.3,14.1,81.4,39.9,113.7l-26.7,62
			    c-2.2,5.1,0.2,11,5.2,13.1c1.8,0.8,3.8,1,5.7,0.7l97.9-17.2c19.6,7.1,40.2,10.7,61,10.6c101.2,0,183.5-82.3,183.5-183.5
			    C370.066,82.1,288.366,0.1,187.466,0z M186.466,346.6c-19.3,0-38.4-3.5-56.5-10.3c-1.7-0.7-3.5-0.8-5.3-0.5l-82.4,14.4l21.8-50.7
			    c1.5-3.5,0.9-7.6-1.6-10.5c-11.8-13.7-21.2-29.3-27.8-46.2c-7.4-18.9-11.2-39-11.2-59.3c0-90.2,73.4-163.5,163.5-163.5
			    c89.9-0.2,162.9,72.5,163,162.4c0,0.2,0,0.4,0,0.6C349.966,273.3,276.566,346.6,186.466,346.6z"/>
            </g>
            <g>
		        <path d="M178.666,146.7h-54c-5.5,0-10,4.5-10,10s4.5,10,10,10h54c5.5,0,10-4.5,10-10S184.166,146.7,178.666,146.7z"/>
	        </g>
            <g>
	        	<path d="M248.666,196.7h-124c-5.5,0-10,4.5-10,10s4.5,10,10,10h124c5.5,0,10-4.5,10-10S254.166,196.7,248.666,196.7z"/>
	        </g>
        </symbol>

        <symbol id="note-ico" viewBox="0 0 512 512">
            <g>
                <path d="M467.819,431.851l-36.651-61.056c-16.896-28.181-25.835-60.437-25.835-93.312V224
                    c0-82.325-67.008-149.333-149.333-149.333S106.667,141.675,106.667,224v53.483c0,32.875-8.939,65.131-25.835,93.312
                    l-36.651,61.056c-1.984,3.285-2.027,7.403-0.149,10.731c1.899,3.349,5.461,5.419,9.301,5.419h405.333
                    c3.84,0,7.403-2.069,9.301-5.419C469.845,439.253,469.803,435.136,467.819,431.851z M72.171,426.667l26.944-44.907
                    C118.016,350.272,128,314.219,128,277.483V224c0-70.592,57.408-128,128-128s128,57.408,128,128v53.483
                    c0,36.736,9.984,72.789,28.864,104.277l26.965,44.907H72.171z"/>
            </g>
 
            <g>
                <path d="M256,0c-23.531,0-42.667,19.136-42.667,42.667v42.667C213.333,91.221,218.112,96,224,96s10.667-4.779,10.667-10.667
                    V42.667c0-11.776,9.557-21.333,21.333-21.333s21.333,9.557,21.333,21.333v42.667C277.333,91.221,282.112,96,288,96
                    s10.667-4.779,10.667-10.667V42.667C298.667,19.136,279.531,0,256,0z"/>
            </g>

            <g>
                <path d="M302.165,431.936c-3.008-5.077-9.515-6.741-14.613-3.819c-5.099,2.987-6.805,9.536-3.819,14.613
                    c2.773,4.715,4.288,10.368,4.288,15.936c0,17.643-14.357,32-32,32c-17.643,0-32-14.357-32-32c0-5.568,1.515-11.221,4.288-15.936
                    c2.965-5.099,1.259-11.627-3.819-14.613c-5.141-2.923-11.627-1.259-14.613,3.819c-4.715,8.064-7.211,17.301-7.211,26.731
                    C202.667,488.085,226.581,512,256,512s53.333-23.915,53.376-53.333C309.376,449.237,306.88,440,302.165,431.936z"/>
            </g>
            
        </symbol>

        <symbol id="info-ico" viewBox="0 0 512 512">
            <g>
                <path d="M256,0C114.511,0,0,114.496,0,256c0,141.489,114.496,256,256,256c141.489,0,256-114.496,256-256
                    C512,114.511,397.504,0,256,0z M256,476.279c-121.462,0-220.279-98.817-220.279-220.279S134.538,35.721,256,35.721
                    S476.279,134.538,476.279,256S377.462,476.279,256,476.279z"/>
            </g>
            <g>
                <path d="M256,203.609c-9.864,0-17.86,7.997-17.86,17.86v146.456c0,9.864,7.997,17.86,17.86,17.86s17.86-7.997,17.86-17.86V221.47
                    C273.86,211.606,265.864,203.609,256,203.609z"/>
            </g>
            <g>
                <path d="M256,126.214c-9.864,0-17.86,7.997-17.86,17.86v21.433c0,9.864,7.997,17.86,17.86,17.86s17.86-7.997,17.86-17.86v-21.433
                    C273.86,134.211,265.864,126.214,256,126.214z"/>
            </g>
        </symbol>

		  <symbol id="market-ico" viewBox="0 0 512 512">
				<g>
					<path d="m272.5 457.5h-33c-4.142 0-7.5 3.357-7.5 7.5s3.358 7.5 7.5 7.5h33c4.142 0 7.5-3.357 7.5-7.5s-3.358-7.5-7.5-7.5z"/>
					<circle cx="161.75" cy="73.755" r="7.5"/>
					<circle cx="196" cy="73.755" r="7.5"/>
					<circle cx="230.25" cy="73.755" r="7.5"/>
					<path d="m402.037 0h-292.074c-21.152 0-38.36 17.209-38.36 38.361v22.755c0 4.143 3.358 7.5 7.5 7.5s7.5-3.357 7.5-7.5v-22.755c0-12.882 10.479-23.361 23.36-23.361h292.073c12.881 0 23.361 10.479 23.361 23.361v94.031l-26.01-35.828v-33.718c0-12.04-9.795-21.836-21.835-21.836h-243.104c-12.04 0-21.835 9.796-21.835 21.836v33.719l-26.01 35.828v-36.214c0-4.143-3.358-7.5-7.5-7.5s-7.5 3.357-7.5 7.5v377.46c0 21.152 17.208 38.361 38.361 38.361h292.073c21.152 0 38.361-17.209 38.361-38.361 0-35.671 0-424.124 0-435.277-.001-21.153-17.209-38.362-38.361-38.362zm16.148 147.99h-51.132l-18.073-41.49h39.084zm-119.306 15h55.759v6.031c0 15.373-12.507 27.88-27.879 27.88-15.373 0-27.88-12.507-27.88-27.88zm-1.01-15-6.024-41.49h40.773l18.073 41.49zm-170.256-85.144c0-3.77 3.066-6.836 6.835-6.836h243.104c3.769 0 6.835 3.066 6.835 6.836v28.654c-63.446 0-196.295 0-256.774 0zm156.266 100.144v6.031c0 15.373-12.507 27.88-27.879 27.88s-27.879-12.507-27.879-27.88v-6.031zm-54.591-15 6.025-41.49h41.375l6.025 41.49zm-67.979 0 18.073-41.49h40.773l-6.024 41.49zm51.812 15v6.031c0 15.373-12.507 27.88-27.88 27.88s-27.879-12.507-27.879-27.88v-6.031zm-89.185-56.49h39.084l-18.073 41.49h-51.132zm-37.333 56.49h55.759v6.031c0 15.373-12.507 27.88-27.879 27.88s-27.879-12.507-27.879-27.88v-6.031zm338.794 310.649c0 12.882-10.479 23.361-23.361 23.361h-292.073c-12.881 0-23.361-10.479-23.361-23.361v-272.078c7.061 6.058 16.102 9.866 26.01 10.293v203.345c0 12.04 9.795 21.835 21.835 21.835h243.104c12.04 0 21.835-9.795 21.835-21.835v-52.402c0-4.143-3.358-7.5-7.5-7.5s-7.5 3.357-7.5 7.5v52.402c0 3.769-3.066 6.835-6.835 6.835h-243.103c-3.769 0-6.835-3.066-6.835-6.835v-205.362c9.128-2.944 16.929-8.867 22.249-16.623 7.734 11.274 20.705 18.688 35.38 18.688 14.674 0 27.646-7.413 35.379-18.688 7.734 11.274 20.705 18.688 35.38 18.688s27.646-7.413 35.38-18.688c7.734 11.274 20.705 18.688 35.38 18.688 14.674 0 27.646-7.413 35.379-18.688 5.32 7.756 13.12 13.679 22.249 16.623v117.996c0 4.143 3.358 7.5 7.5 7.5s7.5-3.357 7.5-7.5v-115.979c9.908-.427 18.949-4.235 26.01-10.293v272.078zm0-304.618c0 15.373-12.507 27.88-27.879 27.88s-27.879-12.507-27.879-27.88v-6.031h55.759v6.031z"/>
					<path d="m215.817 359.392c.598 3.682 3.781 6.3 7.394 6.3.399 0 .804-.032 1.21-.098 4.088-.663 6.865-4.516 6.202-8.604l-4.193-25.849c-.664-4.088-4.516-6.859-8.604-6.202-4.088.663-6.865 4.516-6.202 8.604z"/>
					<path d="m287.579 365.594c.407.065.811.098 1.21.098 3.613 0 6.797-2.618 7.394-6.3l4.193-25.849c.663-4.089-2.114-7.941-6.202-8.604-4.087-.654-7.941 2.113-8.604 6.202l-4.193 25.849c-.664 4.088 2.113 7.941 6.202 8.604z"/>
					<path d="m256 365.69c4.142 0 7.5-3.357 7.5-7.5v-25.849c0-4.143-3.358-7.5-7.5-7.5s-7.5 3.357-7.5 7.5v25.849c0 4.143 3.358 7.5 7.5 7.5z"/>
					<path d="m330.357 269.927h-21.904l-29.5-31.549c-2.829-3.027-7.575-3.186-10.601-.356s-3.185 7.575-.355 10.601l19.921 21.305h-63.837l19.921-21.305c2.829-3.025 2.67-7.771-.355-10.601-3.025-2.827-7.771-2.671-10.601.356l-29.5 31.549h-21.904c-11.748 0-21.306 9.558-21.306 21.306 0 9.281 5.974 17.173 14.271 20.088l11.957 65.475c1.932 10.578 11.139 18.257 21.893 18.257h95.085c10.754 0 19.961-7.679 21.893-18.257l11.957-65.475c8.296-2.915 14.271-10.807 14.271-20.088 0-11.749-9.558-21.306-21.306-21.306zm-19.677 104.174c-.63 3.449-3.631 5.952-7.137 5.952h-95.085c-3.506 0-6.507-2.503-7.137-5.952l-11.242-61.562h131.844zm20.194-76.588c-.182.001-.361.012-.54.026h-148.678c-.174-.013-.348-.025-.524-.026-3.238-.261-5.795-2.976-5.795-6.281 0-3.477 2.829-6.306 6.306-6.306h148.715c3.477 0 6.306 2.829 6.306 6.306-.001 3.303-2.554 6.017-5.79 6.281z"/>
				</g>
		  </symbol>

		  <symbol id="news-ico" viewBox="0 0 512.001 512">
				<path d="m456.832031 0h-401.667969c-30.417968 0-55.164062 24.75-55.164062 55.167969v401.664062c0 30.421875 24.746094 55.167969 55.164062 55.167969h401.667969c30.421875 0 55.167969-24.746094 55.167969-55.167969v-401.664062c0-30.417969-24.746094-55.167969-55.167969-55.167969zm-401.667969 30h401.667969c13.878907 0 25.167969 11.289062 25.167969 25.167969v73.367187h-452v-73.367187c0-13.878907 11.289062-25.167969 25.164062-25.167969zm401.667969 452h-401.667969c-13.875 0-25.164062-11.289062-25.164062-25.167969v-298.296875h452v298.296875c0 13.878907-11.289062 25.167969-25.167969 25.167969zm0 0"/>
				<path d="m143.53125 94.265625h224.933594c8.285156 0 15-6.714844 15-15 0-8.28125-6.714844-15-15-15h-224.933594c-8.28125 0-15 6.71875-15 15 0 8.285156 6.71875 15 15 15zm0 0"/>
				<path d="m79.265625 303.132812h64.269531c8.28125 0 15-6.714843 15-15v-64.265624c0-8.285157-6.71875-15-15-15h-64.269531c-8.28125 0-15 6.714843-15 15v64.265624c0 8.285157 6.714844 15 15 15zm15-64.265624h34.269531v34.265624h-34.269531zm0 0"/>
				<path d="m432.734375 273.132812h-224.933594c-8.285156 0-15 6.71875-15 15 0 8.285157 6.714844 15 15 15h224.933594c8.28125 0 15-6.714843 15-15 0-8.28125-6.71875-15-15-15zm0 0"/>
				<path d="m432.734375 337.402344h-353.46875c-8.28125 0-15 6.714844-15 15 0 8.28125 6.71875 15 15 15h353.46875c8.28125 0 15-6.71875 15-15 0-8.285156-6.71875-15-15-15zm0 0"/>
				<path d="m432.734375 401.667969h-353.46875c-8.28125 0-15 6.714843-15 15 0 8.285156 6.71875 15 15 15h353.46875c8.28125 0 15-6.714844 15-15 0-8.285157-6.71875-15-15-15zm0 0"/>
				<path d="m432.734375 208.867188h-224.933594c-8.285156 0-15 6.714843-15 15 0 8.285156 6.714844 15 15 15h224.933594c8.28125 0 15-6.714844 15-15 0-8.285157-6.71875-15-15-15zm0 0"/>
		  </symbol>

		  <symbol id="trophy-ico" viewBox="0 0 512.00099 512">
				<path d="M 497 36.953125 L 431.296875 36.953125 C 431.535156 29.675781 431.667969 22.355469 431.667969 15 C 431.667969 6.714844 424.949219 0 416.667969 0 L 95.332031 0 C 87.050781 0 80.332031 6.714844 80.332031 15 C 80.332031 22.355469 80.464844 29.675781 80.703125 36.953125 L 15 36.953125 C 6.714844 36.953125 0 43.667969 0 51.953125 C 0 119.164062 17.566406 182.574219 49.460938 230.507812 C 80.988281 277.894531 122.984375 305.074219 168.351562 307.71875 C 178.636719 318.910156 189.507812 328.035156 200.832031 334.996094 L 200.832031 401.664062 L 175.667969 401.664062 C 145.246094 401.664062 120.5 426.414062 120.5 456.832031 L 120.5 481.996094 L 119.433594 481.996094 C 111.148438 481.996094 104.433594 488.714844 104.433594 496.996094 C 104.433594 505.28125 111.148438 511.996094 119.433594 511.996094 L 392.566406 511.996094 C 400.851562 511.996094 407.566406 505.28125 407.566406 496.996094 C 407.566406 488.714844 400.851562 481.996094 392.566406 481.996094 L 391.5 481.996094 L 391.5 456.832031 C 391.5 426.414062 366.753906 401.664062 336.332031 401.664062 L 311.167969 401.664062 L 311.167969 334.996094 C 322.492188 328.039062 333.367188 318.910156 343.652344 307.71875 C 389.015625 305.074219 431.011719 277.894531 462.542969 230.507812 C 494.4375 182.574219 512 119.164062 512 51.953125 C 512 43.667969 505.285156 36.953125 497 36.953125 Z M 74.4375 213.890625 C 48.128906 174.355469 32.671875 122.644531 30.316406 66.953125 L 82.378906 66.953125 C 87.789062 135.414062 103.859375 198.695312 128.976562 248.925781 C 132.976562 256.925781 137.160156 264.484375 141.5 271.601562 C 116.550781 262.179688 93.460938 242.484375 74.4375 213.890625 Z M 361.5 456.832031 L 361.5 482 L 150.5 482 L 150.5 456.832031 C 150.5 442.957031 161.789062 431.664062 175.667969 431.664062 L 336.332031 431.664062 C 350.210938 431.664062 361.5 442.957031 361.5 456.832031 Z M 281.167969 401.664062 L 230.832031 401.664062 L 230.832031 348.03125 C 239.078125 350.203125 247.480469 351.332031 256 351.332031 C 264.519531 351.332031 272.921875 350.203125 281.167969 348.03125 Z M 290.457031 312.34375 C 289.78125 312.621094 289.132812 312.957031 288.511719 313.328125 C 277.910156 318.601562 267.015625 321.332031 256 321.332031 C 244.988281 321.332031 234.097656 318.601562 223.5 313.335938 C 222.871094 312.957031 222.21875 312.621094 221.535156 312.335938 C 209.773438 306.117188 198.394531 296.726562 187.632812 284.386719 C 187.066406 283.578125 186.429688 282.832031 185.722656 282.152344 C 175.039062 269.46875 164.988281 253.867188 155.808594 235.507812 C 128.242188 180.378906 112.320312 107.890625 110.507812 30 L 401.492188 30 C 399.675781 107.890625 383.753906 180.382812 356.191406 235.507812 C 347.011719 253.867188 336.960938 269.46875 326.28125 282.152344 C 325.570312 282.832031 324.925781 283.582031 324.363281 284.390625 C 313.601562 296.734375 302.21875 306.121094 290.457031 312.34375 Z M 437.5625 213.890625 C 418.539062 242.484375 395.449219 262.179688 370.5 271.601562 C 374.839844 264.484375 379.023438 256.925781 383.023438 248.925781 C 408.140625 198.695312 424.207031 135.414062 429.621094 66.953125 L 481.683594 66.953125 C 479.328125 122.644531 463.871094 174.355469 437.5625 213.890625 Z M 437.5625 213.890625 " style=" stroke:none;fill-rule:nonzero;" />
		  </symbol>

		  <symbol id="settings" viewBox="0 0 512 512">
            <path d="m272.066 512h-32.133c-25.989 0-47.134-21.144-47.134-47.133v-10.871c-11.049-3.53-21.784-7.986-32.097-13.323l-7.704 7.704c-18.659 18.682-48.548 18.134-66.665-.007l-22.711-22.71c-18.149-18.129-18.671-48.008.006-66.665l7.698-7.698c-5.337-10.313-9.792-21.046-13.323-32.097h-10.87c-25.988 0-47.133-21.144-47.133-47.133v-32.134c0-25.989 21.145-47.133 47.134-47.133h10.87c3.531-11.05 7.986-21.784 13.323-32.097l-7.704-7.703c-18.666-18.646-18.151-48.528.006-66.665l22.713-22.712c18.159-18.184 48.041-18.638 66.664.006l7.697 7.697c10.313-5.336 21.048-9.792 32.097-13.323v-10.87c0-25.989 21.144-47.133 47.134-47.133h32.133c25.989 0 47.133 21.144 47.133 47.133v10.871c11.049 3.53 21.784 7.986 32.097 13.323l7.704-7.704c18.659-18.682 48.548-18.134 66.665.007l22.711 22.71c18.149 18.129 18.671 48.008-.006 66.665l-7.698 7.698c5.337 10.313 9.792 21.046 13.323 32.097h10.87c25.989 0 47.134 21.144 47.134 47.133v32.134c0 25.989-21.145 47.133-47.134 47.133h-10.87c-3.531 11.05-7.986 21.784-13.323 32.097l7.704 7.704c18.666 18.646 18.151 48.528-.006 66.665l-22.713 22.712c-18.159 18.184-48.041 18.638-66.664-.006l-7.697-7.697c-10.313 5.336-21.048 9.792-32.097 13.323v10.871c0 25.987-21.144 47.131-47.134 47.131zm-106.349-102.83c14.327 8.473 29.747 14.874 45.831 19.025 6.624 1.709 11.252 7.683 11.252 14.524v22.148c0 9.447 7.687 17.133 17.134 17.133h32.133c9.447 0 17.134-7.686 17.134-17.133v-22.148c0-6.841 4.628-12.815 11.252-14.524 16.084-4.151 31.504-10.552 45.831-19.025 5.895-3.486 13.4-2.538 18.243 2.305l15.688 15.689c6.764 6.772 17.626 6.615 24.224.007l22.727-22.726c6.582-6.574 6.802-17.438.006-24.225l-15.695-15.695c-4.842-4.842-5.79-12.348-2.305-18.242 8.473-14.326 14.873-29.746 19.024-45.831 1.71-6.624 7.684-11.251 14.524-11.251h22.147c9.447 0 17.134-7.686 17.134-17.133v-32.134c0-9.447-7.687-17.133-17.134-17.133h-22.147c-6.841 0-12.814-4.628-14.524-11.251-4.151-16.085-10.552-31.505-19.024-45.831-3.485-5.894-2.537-13.4 2.305-18.242l15.689-15.689c6.782-6.774 6.605-17.634.006-24.225l-22.725-22.725c-6.587-6.596-17.451-6.789-24.225-.006l-15.694 15.695c-4.842 4.843-12.35 5.791-18.243 2.305-14.327-8.473-29.747-14.874-45.831-19.025-6.624-1.709-11.252-7.683-11.252-14.524v-22.15c0-9.447-7.687-17.133-17.134-17.133h-32.133c-9.447 0-17.134 7.686-17.134 17.133v22.148c0 6.841-4.628 12.815-11.252 14.524-16.084 4.151-31.504 10.552-45.831 19.025-5.896 3.485-13.401 2.537-18.243-2.305l-15.688-15.689c-6.764-6.772-17.627-6.615-24.224-.007l-22.727 22.726c-6.582 6.574-6.802 17.437-.006 24.225l15.695 15.695c4.842 4.842 5.79 12.348 2.305 18.242-8.473 14.326-14.873 29.746-19.024 45.831-1.71 6.624-7.684 11.251-14.524 11.251h-22.148c-9.447.001-17.134 7.687-17.134 17.134v32.134c0 9.447 7.687 17.133 17.134 17.133h22.147c6.841 0 12.814 4.628 14.524 11.251 4.151 16.085 10.552 31.505 19.024 45.831 3.485 5.894 2.537 13.4-2.305 18.242l-15.689 15.689c-6.782 6.774-6.605 17.634-.006 24.225l22.725 22.725c6.587 6.596 17.451 6.789 24.225.006l15.694-15.695c3.568-3.567 10.991-6.594 18.244-2.304z"/>
				<path d="m256 367.4c-61.427 0-111.4-49.974-111.4-111.4s49.973-111.4 111.4-111.4 111.4 49.974 111.4 111.4-49.973 111.4-111.4 111.4zm0-192.8c-44.885 0-81.4 36.516-81.4 81.4s36.516 81.4 81.4 81.4 81.4-36.516 81.4-81.4-36.515-81.4-81.4-81.4z"/>
        </symbol>

		  <symbol id="clock" viewBox="0 0 443.294 443.294">
            <path d="m221.647 0c-122.214 0-221.647 99.433-221.647 221.647s99.433 221.647 221.647 221.647 221.647-99.433 221.647-221.647-99.433-221.647-221.647-221.647zm0 415.588c-106.941 0-193.941-87-193.941-193.941s87-193.941 193.941-193.941 193.941 87 193.941 193.941-87 193.941-193.941 193.941z"/>
				<path d="m235.5 83.118h-27.706v144.265l87.176 87.176 19.589-19.589-79.059-79.059z"/>
        </symbol>

		  <symbol id="like" viewBox="0 0 512 512">
				<path d="M512,304c0-12.821-5.099-24.768-13.888-33.579c9.963-10.901,15.04-25.515,13.653-40.725
				c-2.496-27.115-26.923-48.363-55.637-48.363H324.352c6.528-19.819,16.981-56.149,16.981-85.333c0-46.272-39.317-85.333-64-85.333
				c-22.144,0-37.995,12.48-38.656,12.992c-2.539,2.027-4.011,5.099-4.011,8.341v72.341L173.205,237.44l-2.539,1.301v-4.075
				c0-5.888-4.779-10.667-10.667-10.667H53.333C23.915,224,0,247.915,0,277.333V448c0,29.419,23.915,53.333,53.333,53.333h64
				c23.061,0,42.773-14.72,50.197-35.264C185.28,475.2,209.173,480,224,480h195.819c23.232,0,43.563-15.659,48.341-37.248
				c2.453-11.136,1.024-22.336-3.84-32.064c15.744-7.915,26.347-24.192,26.347-42.688c0-7.552-1.728-14.784-4.992-21.312
				C501.419,338.752,512,322.496,512,304z M467.008,330.325c-4.117,0.491-7.595,3.285-8.917,7.232
				c-1.301,3.947-0.213,8.277,2.816,11.136c5.419,5.099,8.427,11.968,8.427,19.307c0,13.461-10.176,24.768-23.637,26.325
				c-4.117,0.491-7.595,3.285-8.917,7.232c-1.301,3.947-0.213,8.277,2.816,11.136c7.019,6.613,9.835,15.893,7.723,25.451
				c-2.624,11.904-14.187,20.523-27.499,20.523H224c-17.323,0-46.379-8.128-56.448-18.219c-3.051-3.029-7.659-3.925-11.627-2.304
				c-3.989,1.643-6.592,5.547-6.592,9.856c0,17.643-14.357,32-32,32h-64c-17.643,0-32-14.357-32-32V277.333c0-17.643,14.357-32,32-32
				h96V256c0,3.691,1.92,7.125,5.077,9.088c3.115,1.877,7.04,2.069,10.368,0.448l21.333-10.667c2.155-1.067,3.883-2.859,4.907-5.056
				l64-138.667c0.64-1.408,0.981-2.944,0.981-4.48V37.781C260.437,35.328,268.139,32,277.333,32C289.024,32,320,61.056,320,96
				c0,37.547-20.437,91.669-20.629,92.203c-1.237,3.264-0.811,6.955,1.173,9.856c2.005,2.88,5.291,4.608,8.789,4.608h146.795
				c17.792,0,32.896,12.736,34.389,28.992c1.131,12.16-4.715,23.723-15.189,30.187c-3.264,2.005-5.205,5.632-5.056,9.493
				s2.368,7.317,5.781,9.088c9.024,4.587,14.613,13.632,14.613,23.573C490.667,317.461,480.491,328.768,467.008,330.325z"/>
				<path d="M160,245.333c-5.888,0-10.667,4.779-10.667,10.667v192c0,5.888,4.779,10.667,10.667,10.667s10.667-4.779,10.667-10.667
				V256C170.667,250.112,165.888,245.333,160,245.333z"/>
		  </symbol>

   </defs>
</svg>